# xmcd
# 
# Track frame offsets:
#     150
#     15534
#     37639
#     59962
#     88335
#     115100
#     137764
#     154997
#     177251
#     201231
#     226716
# 
# Disc length: 3611
# 
# Revision: 1
# Processed by: cddbd v1.5.2PL0 Copyright (c) Steve Scherf et al.
# Submitted via: fre:ac v1.0.31
# 
DISCID=8f0e190b
DTITLE=Kitchen Dwellers - Ghost in the Bottle
DYEAR=2017
DGENRE=Bluegrass
TTITLE0=This Time
TTITLE1=Colder Nights
TTITLE2=Mountain
TTITLE3=Visions of More
TTITLE4=Gypsy
TTITLE5=The Crown
TTITLE6=Ebenezer's Winter
TTITLE7=Guilty
TTITLE8=Buckle Down
TTITLE9=Five Candles
TTITLE10=Ghost in the Bottle
EXTD=
EXTT0=
EXTT1=feat. Anders Beck
EXTT2=
EXTT3=feat. Mihali Savoulidis
EXTT4=feat. Bill Payne
EXTT5=
EXTT6=
EXTT7=feat. Bill Payne
EXTT8=feat. Bill Payne
EXTT9=
EXTT10=
PLAYORDER=
